<svg id="Layer_1" data-name="Layer 1" xmlns="http://www.w3.org/2000/svg" viewBox="0 0 293.14 79.81"><title>PAISLEY_logo_final</title><path d="M10.85,79.9h-11V20H10.77L10.9,22l2.27-.59a40.78,40.78,0,0,1,21.89.13c5.69,1.62,10,5,11.71,10.92a16.54,16.54,0,0,1,.7,4.12c.09,3.38.29,6.79-.73,10.11A15.23,15.23,0,0,1,36.66,56.89a38.51,38.51,0,0,1-18.45,1.55c-2.23-.31-4.42-1-6.64-1.45-.19,0-.38,0-.72-.06Zm.67-40.61c-.19,5.26,2.22,7.68,5.62,8.81a21.37,21.37,0,0,0,14-.11,7,7,0,0,0,4.74-4.55,17.7,17.7,0,0,0,.56-4.83c.05-4.15-2.35-7.06-6.37-8.11a24.28,24.28,0,0,0-10.45-.39C14.89,31,11.28,33.32,11.52,39.29Z"/><path d="M90.72,58.86v-2c-1.55.4-3,.83-4.45,1.13A44.07,44.07,0,0,1,72,58.55a25.86,25.86,0,0,1-10-3,14.87,14.87,0,0,1-7.72-11.82A29.72,29.72,0,0,1,54.63,33c1.27-5.14,4.59-8.54,9.36-10.57a34.71,34.71,0,0,1,16.8-2.26,90.58,90.58,0,0,1,9.14,1.7,5.23,5.23,0,0,0,.78.07V20.06h11v38.8ZM65.17,39.38c-.31,5.4,2.4,7.76,5.62,8.78a21.31,21.31,0,0,0,14.1-.22,7.11,7.11,0,0,0,4.7-4.9A17.77,17.77,0,0,0,90,38.65c0-4.24-2.21-7-6.35-8.12a24.71,24.71,0,0,0-10-.44C68.82,30.79,64.76,33.22,65.17,39.38Z"/><path d="M263.49,20.17c-.19,5.37,0,11.31,0,15.68s.75,6.88,1.62,8.38c1.38,2.76,3,4,6.08,4.08a20.1,20.1,0,0,0,4.18-.16c3.26-.59,5-2.85,6-5.85,1.13-3.45,1-7,1.1-10.57s-.07-6.95-.12-10.43V20h11.84V79.86H283.05V57.42c-3.5,1.85-7.08,2.08-10.68,2.07-3.37,0-6.71-.25-9.79-1.84-4.5-2.34-6.85-6.29-8.14-11a38.57,38.57,0,0,1-1.22-10.8c.06-4.8.2-9.59.26-14.39,0-1,.25-1.42,1.36-1.39,2.56.08,5.12,0,7.68,0C262.87,20.11,263.22,20.15,263.49,20.17Z"/><path d="M245.76,41.78h-33c-.51,2.9,1.61,5.71,4.79,6.6a28,28,0,0,0,10.94.53,34.77,34.77,0,0,0,6.58-1.55,12.68,12.68,0,0,0,2.72-1.89c.28-.18.82-.38,1-.25,2.33,2,4.62,4,7,6.07A19.25,19.25,0,0,1,237.26,57a43,43,0,0,1-18.95,1.55,22.46,22.46,0,0,1-10.79-3.85,14,14,0,0,1-5.84-10.41,54.51,54.51,0,0,1-.08-8.38c.41-7.19,4.48-12.32,11.41-14.29a36.9,36.9,0,0,1,22.51.39A15,15,0,0,1,245.76,36C245.8,37.9,245.76,39.77,245.76,41.78Zm-11.22-4.23c-.13-3-1.48-5.48-3.93-6.37a18,18,0,0,0-13.87.3c-2.55,1.12-3.76,3.26-4.12,6.07Z"/><path d="M174,26.05l-6.65,7.53a13.89,13.89,0,0,0-6.11-3.75c-4.09-1.15-16.88-1.45-19.63,3.55s29.38-.62,32.35,9c2,7.9-7.77,14.27-15.66,15.78-12.11,2.92-25-3.24-28.86-6.93l6.42-7.29c8.32,7,22.57,7,25.35.85s-28.32-.09-31.71-9.05c-2.7-6.4,10.27-16.24,23.52-16.24S172,24.16,174,26.05Z"/><path d="M194.34,58.9h-11V16.39h11Z"/><path d="M109.53,58.9V31h11V58.9Z"/><path d="M120.63,20.06V25l-11.08,0v-5Z"/></svg>